<svg xmlns="http://www.w3.org/2000/svg" viewBox="0 0 142.25 23" width="143" height="23">
    <switch>
        <g>
            <g fill="#FFED00">
                <path
                    d="M125.683 9.205h16.372v8.624c0 1.664-1.152 3.889-3.542 4.518-2.405.633-4.74.488-7.362.488h-10.937c-3.623.051-6.72.307-8.596-.943-1.409-.939-2.329-2.415-2.307-4.062V5.295c-.026-1.739 1.002-3.003 2.332-4.051 1.625-1.278 4.995-.958 8.572-.958h10.934c4.316 0 7.163.011 8.75 1.097 2.43 1.662 2.221 4.92 2.221 4.92h-10.989c-.347-1.627-1.317-2.052-3.537-2.052h-3.522c-2.406-.024-3.308.762-3.292 2.126v9.989c0 1.203.181 1.732 1.161 2.188.768.369 2.074.308 3.566.308.473 0 1.668.003 2.785.003 2.631 0 2.859-1.378 2.859-2.882v-2.668h-5.469v-4.11h.001zM39.467 22.835V.286h11.469l-.002 16.531h14.96v6.018H39.467z"/>
                <path fill-rule="evenodd"
                      d="M21.536 9.511v4.073c-.001.676.104 2.37-1.009 2.821-1.424.578-2.462.392-3.904.414H11.71V6.277h4.92c1.442.023 2.476-.164 3.9.415 1.113.452 1.005 2.144 1.006 2.819zm.553 13.323c2.983 0 6.237.234 8.37-.753 2.152-.989 2.529-3.602 2.53-4.962l.004-11.083c-.001-1.36-.378-3.973-2.53-4.961C28.331.087 25.074.286 22.09.286H.25v22.549l21.839-.001zM82.529 4.273h4.957c1.57 0 2.774-.12 3.844.356 1.308.582 1.13 1.583 1.13 2.107 0 .508.13 1.592-1.13 2.123-1.136.478-1.965.346-3.844.346h-4.957V4.273zm-11.47 18.562V.287h21.666c2.505.031 5.336-.194 7.361.713 2.307 1.033 3.56 2.219 3.56 4.689l-.018.608c0 1.929-.842 2.932-2.525 3.969-1.663 1.038-3.716 1.185-7.639 1.185h4.696c1.492 0 2.771.25 3.837.749 1.088.489 1.631 1.816 1.631 2.501l.001 8.134H92.168l.001-7.139c0-.685.052-1.8-.959-2.107-1.108-.337-1.807-.24-3.582-.272h-5.1v9.519H71.059v-.001z"
                      clip-rule="evenodd"/>
            </g>
        </g>
    </switch>
</svg>
